{"title":"Metallica - Metal hammer fest 1985","uid":14575663,"size":762463238,"categoryP":"video","categoryS":"music_videos","magnet":"?xt=urn:btih:be995840db932e23fc3bccf07303eea31c495b93&amp;dn=Metallica+-+Metal+hammer+fest+1985&amp;tr=udp%3A%2F%2Ftracker.leechers-paradise.org%3A6969&amp;tr=udp%3A%2F%2Fzer0day.ch%3A1337&amp;tr=udp%3A%2F%2Fopen.demonii.com%3A1337&amp;tr=udp%3A%2F%2Ftracker.coppersurfer.tk%3A6969&amp;tr=udp%3A%2F%2Fexodus.desync.com%3A6969","seeders":1,"leechers":0,"uploader":"vincent49","files":2,"time":1462838863,"description":"ripped version of the live in west Germany 1985 hammer festival.\r\nEnjoy!!\r\n\r\nGeneral\r\nComplete name                            : Metal hammer fest 1985Metallica - Metal Hammer Fest.avi\r\nFormat                                   : AVI\r\nFormat/Info                              : Audio Video Interleave\r\nFile size                                : 727 MiB\r\nDuration                                 : 1h 15mn\r\nOverall bit rate                         : 1 341 Kbps\r\nWriting application                      : Magic0515\r\n\r\nVideo\r\nID                                       : 0\r\nFormat                                   : MPEG-4 Visual\r\nFormat profile                           : Advanced   \r\nFormat settings, BVOP                    : No\r\nFormat settings, QPel                    : No\r\nFormat settings, GMC                     : No warppoints\r\nFormat settings, Matrix                  : Default (H.263)\r\nCodec ID                                 : XVID\r\nCodec ID/Hint                            : XviD\r\nDuration                                 : 1h 15mn\r\nBit rate                                 : 1 200 Kbps\r\nWidth                                    : 640 pixels\r\nHeight                                   : 480 pixels\r\nDisplay aspect ratio                     : 4:3\r\nFrame rate                               : 29.970 (29970/1000) fps\r\nColor space                              : YUV\r\nChroma subsampling                       : 4:2:0\r\nBit depth                                : 8 bits\r\nScan type                                : Progressive\r\nCompression mode                         : Lossy\r\nBits/(Pixel*Frame)                       : 0.130\r\nStream size                              : 651 MiB (89%)\r\nWriting library                          : Magic0432\r\n\r\nAudio\r\nID                                       : 1\r\nFormat                                   : MPEG Audio\r\nFormat version                           : Version 1\r\nFormat profile                           : Layer 3\r\nMode                                     : Joint stereo\r\nMode extension                           : MS Stereo\r\nCodec ID                                 : 55\r\nCodec ID/Hint                            : MP3\r\nDuration                                 : 1h 15mn\r\nBit rate mode                            : Constant\r\nBit rate                                 : 128 Kbps\r\nChannel(s)                               : 2 channels\r\nSampling rate                            : 44.1 KHz\r\nCompression mode                         : Lossy\r\nStream size                              : 69.4 MiB (10%)\r\nAlignment                                : Aligned on interleaves\r\nInterleave, duration                     : 26 ms (0.78 video frame)\r\nWriting library                          : LAME3.97","torrent":{"xt":"urn:btih:be995840db932e23fc3bccf07303eea31c495b93","amp;dn":"Metallica+-+Metal+hammer+fest+1985","amp;tr":["udp%3A%2F%2Ftracker.leechers-paradise.org%3A6969","udp%3A%2F%2Fzer0day.ch%3A1337","udp%3A%2F%2Fopen.demonii.com%3A1337","udp%3A%2F%2Ftracker.coppersurfer.tk%3A6969","udp%3A%2F%2Fexodus.desync.com%3A6969"],"infoHash":"be995840db932e23fc3bccf07303eea31c495b93","infoHashBuffer":{"type":"Buffer","data":[190,153,88,64,219,147,46,35,252,59,204,240,115,3,238,163,28,73,91,147]},"announce":[],"urlList":[]}}